<svg width="38" height="26" viewBox="0 0 38 26" fill="none" xmlns="http://www.w3.org/2000/svg">
<path d="M26 5C26.4062 5 26.75 5.34375 26.75 5.75V7.25H28.25C28.6562 7.25 29 7.59375 29 8C29 8.4375 28.6562 8.75 28.25 8.75H26.75V10.25C26.75 10.6875 26.4062 11 26 11C25.5625 11 25.25 10.6875 25.25 10.25V8.75H23.75C23.3125 8.75 23 8.4375 23 8C23 7.59375 23.3125 7.25 23.75 7.25H25.25V5.75C25.25 5.34375 25.5625 5 26 5ZM12.5 12.5C12.5 11.9688 12.9375 11.5 13.5 11.5C14.0625 11.5 14.5 11.9688 14.5 12.5C14.5 13.0625 14.0625 13.5 13.5 13.5C12.9375 13.5 12.5 13.0625 12.5 12.5ZM19.5 12.5C19.5 13.0625 19.0625 13.5 18.5 13.5C17.9375 13.5 17.5 13.0625 17.5 12.5C17.5 11.9688 17.9375 11.5 18.5 11.5C19.0625 11.5 19.5 11.9688 19.5 12.5ZM16 16.5C16.9688 16.5 17.8125 16.0938 18.4375 15.4062C18.6875 15.0938 19.1562 15.0625 19.4688 15.3438C19.7812 15.625 19.8125 16.0938 19.5312 16.4062C18.6875 17.4062 17.4062 18 16 18C14.5625 18 13.2812 17.4062 12.4375 16.4062C12.1562 16.0938 12.1875 15.625 12.5 15.3438C12.8125 15.0625 13.2812 15.0938 13.5312 15.4062C14.1562 16.0938 15 16.5 16 16.5ZM23 14C23 17.875 19.8438 21 16 21C12.125 21 9 17.875 9 14C9 10.1562 12.125 7 16 7C19.8438 7 23 10.1562 23 14ZM16 8.5C12.9375 8.5 10.5 10.9688 10.5 14C10.5 17.0625 12.9375 19.5 16 19.5C19.0312 19.5 21.5 17.0625 21.5 14C21.5 10.9688 19.0312 8.5 16 8.5Z" fill="#C1CDD6"/>
</svg>
