<svg width="25" height="30" viewBox="0 0 25 30" fill="none" xmlns="http://www.w3.org/2000/svg">
<mask id="mask0_1_534" style="mask-type:luminance" maskUnits="userSpaceOnUse" x="0" y="0" width="25" height="30">
<path fill-rule="evenodd" clip-rule="evenodd" d="M24.148 29.5532H0V0H24.148V29.5532Z" fill="white"/>
</mask>
<g mask="url(#mask0_1_534)">
<path fill-rule="evenodd" clip-rule="evenodd" d="M10.6174 1.74529C10.6174 0.783048 11.3961 0 12.3535 0C12.7228 0 13.076 0.116304 13.3747 0.335314L23.3763 7.6644L23.3814 7.66804L23.3861 7.67168L23.3943 7.67775C23.8666 8.02642 24.148 8.58585 24.148 9.18023V16.6344C24.148 17.2224 23.8688 17.7802 23.3999 18.1293L23.3953 18.133L23.3861 18.14L23.3763 18.1468L13.5311 25.362V27.8075C13.5311 28.77 12.7521 29.5533 11.7945 29.5533C11.4255 29.5533 11.0722 29.437 10.7733 29.2178L0.771636 21.8887L0.766294 21.8848L0.761195 21.8809L0.752454 21.8746C0.280926 21.5254 0 20.9663 0 20.3731V12.9187C0 12.3309 0.278984 11.7734 0.747598 11.4242L0.75294 11.4201L0.762167 11.4133L0.771636 11.4063L10.6174 4.19131V1.74529ZM12.5135 1.5105C12.4632 1.47335 12.4079 1.45684 12.3535 1.45684C12.2087 1.45684 12.0742 1.57533 12.0742 1.74529V4.92969L1.63287 12.5812L1.62146 12.59C1.51827 12.6652 1.45684 12.7878 1.45684 12.9187V12.9216V20.3731V20.377C1.45684 20.5071 1.51778 20.6292 1.62097 20.7048L1.63287 20.7137L11.6343 28.0426C11.6848 28.0795 11.7404 28.0965 11.7945 28.0965C11.9392 28.0965 12.0742 27.978 12.0742 27.8076V24.6234L22.5154 16.9716L22.5265 16.9634C22.6297 16.8879 22.6911 16.7655 22.6911 16.6344V16.6317V9.18024V9.17636C22.6911 9.04621 22.6302 8.9236 22.5273 8.84833L22.5154 8.83959L12.5135 1.5105Z" fill="#0056CF"/>
</g>
<path d="M8.84298 13.0805L8.17866 12.4161L6.41735 14.1774L4.65604 12.4161L3.99172 13.0805L5.75279 14.8418L3.99172 16.6033L4.65604 17.2676L6.41735 15.5061L8.17866 17.2676L8.84298 16.6033L7.08167 14.8418L8.84298 13.0805Z" fill="#0056CF"/>
<path fill-rule="evenodd" clip-rule="evenodd" d="M14.7562 14.8417C14.7562 13.268 16.0322 11.9923 17.6058 11.9923C19.1794 11.9923 20.4551 13.268 20.4551 14.8417C20.4551 16.4158 19.1794 17.6915 17.6058 17.6915C16.0322 17.6915 14.7562 16.4158 14.7562 14.8417ZM19.5155 14.8416C19.5155 13.7886 18.6589 12.932 17.6058 12.932C16.5525 12.932 15.6959 13.7886 15.6959 14.8416C15.6959 15.8949 16.5525 16.7518 17.6058 16.7518C18.6589 16.7518 19.5155 15.8949 19.5155 14.8416Z" fill="#0056CF"/>
<path d="M14.5212 13.6623L11.7964 10.713L9.07796 13.6623L9.74349 14.2822L11.3412 12.5372V17.6079C11.3412 17.859 11.5446 18.0625 11.7954 18.0625C12.0467 18.0625 12.25 17.859 12.25 17.6079V12.5355L13.8556 14.2822L14.5212 13.6623Z" fill="#0056CF"/>
</svg>
